<?xml version="1.0" encoding="utf-8"?>
<!-- Generator: Adobe Illustrator 27.4.1, SVG Export Plug-In . SVG Version: 6.00 Build 0)  -->
<svg version="1.1" id="Layer_1" xmlns="http://www.w3.org/2000/svg" xmlns:xlink="http://www.w3.org/1999/xlink" x="0px" y="0px"
	 viewBox="0 0 60 80" style="enable-background:new 0 0 60 80;" xml:space="preserve">
<style type="text/css">
	.st0{fill:#FFFFFF;}
	.st1{fill:#F7931E;}
	.st2{fill:#FFFFFF;stroke:#F7931E;stroke-width:3;stroke-linecap:round;stroke-linejoin:round;stroke-miterlimit:10;}
	.st3{enable-background:new    ;}
</style>
<g>
	<path class="st0" d="M6,78.5c-2.5,0-4.5-2-4.5-4.5V6c0-2.5,2-4.5,4.5-4.5h31.5c1.2,0,2.3,0.5,3.2,1.3l16.5,16.5
		c0.9,0.8,1.3,2,1.3,3.2V74c0,2.5-2,4.5-4.5,4.5H6z"/>
	<path class="st1" d="M37.5,3c0.8,0,1.6,0.3,2.1,0.9l16.5,16.5c0.6,0.6,0.9,1.3,0.9,2.1V74c0,1.7-1.3,3-3,3H6c-1.7,0-3-1.3-3-3V6
		c0-1.7,1.3-3,3-3H37.5 M37.5,0H6C2.7,0,0,2.7,0,6v68c0,3.3,2.7,6,6,6h48c3.3,0,6-2.7,6-6V22.5c0-1.6-0.6-3.1-1.8-4.2L41.8,1.8
		C40.6,0.6,39.1,0,37.5,0L37.5,0z"/>
</g>
<polyline class="st2" points="36.5,11.2 36.5,23.5 48.8,23.5 "/>
<g class="st3">
	<path class="st1" d="M8.1,38.9c1.1-0.2,2.7-0.3,4.9-0.3c2.3,0,3.9,0.4,4.9,1.3c1,0.8,1.7,2.2,1.7,3.7s-0.5,2.9-1.5,3.8
		c-1.2,1.2-3.1,1.7-5.3,1.7c-0.5,0-0.9,0-1.2-0.1v5.8H8.1V38.9z M11.8,46.2c0.3,0.1,0.7,0.1,1.2,0.1c1.9,0,3.1-1,3.1-2.6
		c0-1.5-1-2.4-2.9-2.4c-0.7,0-1.2,0.1-1.5,0.1V46.2z"/>
	<path class="st1" d="M22.1,54.8V38.7h4.3l3.4,5.9c1,1.7,1.9,3.7,2.6,5.5h0.1c-0.2-2.1-0.3-4.3-0.3-6.7v-4.7h3.4v16.2h-3.8l-3.5-6.2
		c-1-1.7-2-3.8-2.8-5.7l-0.1,0c0.1,2.1,0.1,4.4,0.1,7.1v4.9H22.1z"/>
	<path class="st1" d="M52.2,54.1C51,54.5,48.9,55,46.8,55c-3,0-5.1-0.7-6.6-2.2c-1.5-1.4-2.3-3.5-2.3-5.9c0-5.4,3.9-8.4,9.2-8.4
		c2.1,0,3.7,0.4,4.5,0.8l-0.8,2.9c-0.9-0.4-2-0.7-3.8-0.7c-3,0-5.4,1.7-5.4,5.2c0,3.3,2.1,5.3,5.1,5.3c0.8,0,1.5-0.1,1.8-0.2v-3.4
		h-2.5v-2.9h6V54.1z"/>
</g>
</svg>
