<?xml version="1.0" encoding="utf-8"?>
<!-- Generator: Adobe Illustrator 27.4.1, SVG Export Plug-In . SVG Version: 6.00 Build 0)  -->
<svg version="1.1" id="Layer_1" xmlns="http://www.w3.org/2000/svg" xmlns:xlink="http://www.w3.org/1999/xlink" x="0px" y="0px"
	 viewBox="0 0 60 80" style="enable-background:new 0 0 60 80;" xml:space="preserve">
<style type="text/css">
	.st0{fill:#FFFFFF;}
	.st1{fill:#C43E1C;}
	.st2{fill:#FFFFFF;stroke:#C43E1C;stroke-width:3;stroke-linecap:round;stroke-linejoin:round;stroke-miterlimit:10;}
</style>
<g>
	<path class="st0" d="M6,78.5c-2.5,0-4.5-2-4.5-4.5V6c0-2.5,2-4.5,4.5-4.5h31.5c1.2,0,2.3,0.5,3.2,1.3l16.5,16.5
		c0.9,0.8,1.3,2,1.3,3.2V74c0,2.5-2,4.5-4.5,4.5H6z"/>
	<path class="st1" d="M37.5,3c0.8,0,1.6,0.3,2.1,0.9l16.5,16.5c0.6,0.6,0.9,1.3,0.9,2.1V74c0,1.7-1.3,3-3,3H6c-1.7,0-3-1.3-3-3V6
		c0-1.7,1.3-3,3-3H37.5 M37.5,0H6C2.7,0,0,2.7,0,6v68c0,3.3,2.7,6,6,6h48c3.3,0,6-2.7,6-6V22.5c0-1.6-0.6-3.1-1.8-4.2L41.8,1.8
		C40.6,0.6,39.1,0,37.5,0L37.5,0z"/>
</g>
<polyline class="st2" points="36.5,11.2 36.5,23.5 48.8,23.5 "/>
<g>
	<g>
		<path class="st1" d="M11.1,38.9c1.1-0.2,2.7-0.3,4.9-0.3c2.3,0,3.9,0.4,4.9,1.3c1,0.8,1.7,2.2,1.7,3.7s-0.5,2.9-1.5,3.8
			c-1.2,1.2-3.1,1.7-5.3,1.7c-0.5,0-0.9,0-1.2-0.1v5.8h-3.6V38.9z M14.7,46.2c0.3,0.1,0.7,0.1,1.2,0.1c1.9,0,3.1-1,3.1-2.6
			c0-1.5-1-2.4-2.9-2.4c-0.7,0-1.2,0.1-1.5,0.1V46.2z"/>
		<path class="st1" d="M25,38.9c1.1-0.2,2.7-0.3,4.9-0.3c2.3,0,3.9,0.4,4.9,1.3c1,0.8,1.7,2.2,1.7,3.7s-0.5,2.9-1.5,3.8
			c-1.2,1.2-3.1,1.7-5.3,1.7c-0.5,0-0.9,0-1.2-0.1v5.8H25V38.9z M28.6,46.2c0.3,0.1,0.7,0.1,1.2,0.1c1.9,0,3.1-1,3.1-2.6
			c0-1.5-1-2.4-2.9-2.4c-0.7,0-1.2,0.1-1.5,0.1V46.2z"/>
		<path class="st1" d="M42.1,41.7h-4.3v-3.1h12.4v3.1h-4.4v13.1h-3.7V41.7z"/>
	</g>
</g>
</svg>
