<?xml version="1.0" encoding="utf-8"?>
<!-- Generator: Adobe Illustrator 27.3.1, SVG Export Plug-In . SVG Version: 6.00 Build 0)  -->
<svg version="1.1" id="Layer_1" xmlns="http://www.w3.org/2000/svg" xmlns:xlink="http://www.w3.org/1999/xlink" x="0px" y="0px"
	 viewBox="0 0 60 80" style="enable-background:new 0 0 60 80;" xml:space="preserve">
<style type="text/css">
	.st0{fill:#FFFFFF;}
	.st1{fill:#999999;}
</style>
<g>
	<path class="st0" d="M6,78.5c-2.5,0-4.5-2-4.5-4.5V6c0-2.5,2-4.5,4.5-4.5h31.5c1.2,0,2.3,0.5,3.2,1.3l16.5,16.5
		c0.9,0.8,1.3,2,1.3,3.2V74c0,2.5-2,4.5-4.5,4.5H6z"/>
	<path class="st1" d="M37.5,3c0.8,0,1.6,0.3,2.1,0.9l16.5,16.5c0.6,0.6,0.9,1.3,0.9,2.1V74c0,1.7-1.3,3-3,3H6c-1.7,0-3-1.3-3-3V6
		c0-1.7,1.3-3,3-3H37.5 M37.5,0H6C2.7,0,0,2.7,0,6v68c0,3.3,2.7,6,6,6h48c3.3,0,6-2.7,6-6V22.5c0-1.6-0.6-3.1-1.8-4.2L41.8,1.8
		C40.6,0.6,39.1,0,37.5,0L37.5,0z"/>
</g>
<g>
	<path class="st1" d="M48.8,25H36.5c-0.8,0-1.5-0.7-1.5-1.5V11.2c0-0.8,0.7-1.5,1.5-1.5s1.5,0.7,1.5,1.5V22h10.8
		c0.8,0,1.5,0.7,1.5,1.5S49.6,25,48.8,25z"/>
</g>
<g>
	<path class="st1" d="M13.9,41.7H9.6v-3.1H22v3.1h-4.4v13.1h-3.7V41.7z"/>
	<path class="st1" d="M32.9,54.8l-1.5-2.9c-0.6-1.1-1-2-1.4-2.9h0c-0.3,0.9-0.7,1.8-1.2,2.9l-1.3,2.9h-4.2l4.7-8.2l-4.5-8h4.2l1.4,3
		c0.5,1,0.8,1.8,1.2,2.7h0c0.4-1,0.7-1.8,1.1-2.7l1.4-3h4.2l-4.6,7.9l4.8,8.3H32.9z"/>
	<path class="st1" d="M42.3,41.7H38v-3.1h12.4v3.1H46v13.1h-3.7V41.7z"/>
</g>
</svg>
